<svg xmlns="http://www.w3.org/2000/svg" viewBox="0 0 680 290" role="img" aria-label="ACAM — Compensação ambiental">
  <title>ACAM — Compensação ambiental</title>
  <desc>Marca vertical ACAM. Símbolo monograma "A" geométrico em verde floresta com três curvas de nível em creme atravessando o desenho e base em cobre. Wordmark ACAM em serifa Cormorant Garamond, separador com ponto em cobre, e tagline "Compensação ambiental" em itálico serif. Sistema de identidade Vieira Castro Advogados.</desc>
  <defs>
    <clipPath id="acam-vertical-clip">
      <path clip-rule="evenodd" d="M 300 155 L 380 155 L 340 55 Z M 332 115 L 348 115 L 340 80 Z M 320 140 L 360 140 L 348 123 L 332 123 Z"/>
    </clipPath>
  </defs>
  <rect x="0" y="0" width="680" height="290" fill="#f5f0e8"/>
  <path d="M 300 155 L 380 155 L 340 55 Z M 332 115 L 348 115 L 340 80 Z M 320 140 L 360 140 L 348 123 L 332 123 Z" fill="#1a3a2a" fill-rule="evenodd"/>
  <rect x="295" y="140" width="90" height="16" fill="#c17f59" clip-path="url(#acam-vertical-clip)"/>
  <line x1="295" y1="90" x2="385" y2="90" stroke="#f5f0e8" stroke-width="2"/>
  <line x1="295" y1="119" x2="385" y2="119" stroke="#f5f0e8" stroke-width="2"/>
  <line x1="295" y1="132" x2="385" y2="132" stroke="#f5f0e8" stroke-width="2"/>
  <text x="340" y="215" font-family="Cormorant Garamond, EB Garamond, Georgia, serif" font-size="42" font-weight="400" letter-spacing="4" fill="#1a3a2a" text-anchor="middle">ACAM</text>
  <line x1="252" y1="240" x2="320" y2="240" stroke="#1a3a2a" stroke-width="0.5"/>
  <circle cx="340" cy="240" r="2" fill="#c17f59"/>
  <line x1="360" y1="240" x2="428" y2="240" stroke="#1a3a2a" stroke-width="0.5"/>
  <text x="340" y="265" font-family="Cormorant Garamond, EB Garamond, Georgia, serif" font-size="14" font-style="italic" font-weight="400" fill="#1a3a2a" text-anchor="middle">Compensação ambiental</text>
</svg>
